<mxfile host="65bd71144e" modified="2021-02-17T17:18:21.237Z" agent="5.0 (Windows NT 10.0; Win64; x64) AppleWebKit/537.36 (KHTML, like Gecko) Code/1.53.2 Chrome/87.0.4280.141 Electron/11.2.1 Safari/537.36" etag="umPnbTPzOWDkpn80WYwL" version="14.2.4" type="embed">
    <diagram id="Pa5melqqgkCDVamJrxyY" name="Context">
        <mxGraphModel dx="1045" dy="1182" grid="1" gridSize="10" guides="1" tooltips="1" connect="1" arrows="1" fold="1" page="1" pageScale="1" pageWidth="850" pageHeight="1100" math="0" shadow="0">
            <root>
                <mxCell id="0"/>
                <mxCell id="1" parent="0"/>
                <mxCell id="Nn95fTtBwCOmTKekyxl4-7" style="edgeStyle=orthogonalEdgeStyle;rounded=0;orthogonalLoop=1;jettySize=auto;html=1;entryX=0.451;entryY=0;entryDx=0;entryDy=0;entryPerimeter=0;exitX=1.06;exitY=0.7;exitDx=0;exitDy=0;exitPerimeter=0;fillColor=#dae8fc;strokeColor=#6c8ebf;strokeWidth=3;" parent="1" source="Nn95fTtBwCOmTKekyxl4-1" target="Nn95fTtBwCOmTKekyxl4-3" edge="1">
                    <mxGeometry relative="1" as="geometry"/>
                </mxCell>
                <mxCell id="Nn95fTtBwCOmTKekyxl4-1" value="" style="aspect=fixed;html=1;points=[];align=center;image;fontSize=12;image=img/lib/mscae/Person.svg;" parent="1" vertex="1">
                    <mxGeometry x="110" y="176.49" width="84.4" height="114.05" as="geometry"/>
                </mxCell>
                <mxCell id="Nn95fTtBwCOmTKekyxl4-8" style="edgeStyle=orthogonalEdgeStyle;rounded=0;orthogonalLoop=1;jettySize=auto;html=1;entryX=0.005;entryY=0.63;entryDx=0;entryDy=0;entryPerimeter=0;fillColor=#dae8fc;strokeColor=#6c8ebf;strokeWidth=3;" parent="1" source="Nn95fTtBwCOmTKekyxl4-3" target="Nn95fTtBwCOmTKekyxl4-4" edge="1">
                    <mxGeometry relative="1" as="geometry"/>
                </mxCell>
                <mxCell id="Nn95fTtBwCOmTKekyxl4-3" value="" style="verticalLabelPosition=bottom;html=1;verticalAlign=top;align=center;strokeColor=none;fillColor=#00BEF2;shape=mxgraph.azure.website_generic;pointerEvents=1;" parent="1" vertex="1">
                    <mxGeometry x="230" y="410" width="181" height="160" as="geometry"/>
                </mxCell>
                <mxCell id="Nn95fTtBwCOmTKekyxl4-14" style="edgeStyle=orthogonalEdgeStyle;rounded=0;orthogonalLoop=1;jettySize=auto;html=1;strokeWidth=3;fontSize=15;entryX=1.004;entryY=0.405;entryDx=0;entryDy=0;entryPerimeter=0;fontColor=#0066CC;fillColor=#1ba1e2;strokeColor=#006EAF;" parent="1" source="Nn95fTtBwCOmTKekyxl4-4" target="Nn95fTtBwCOmTKekyxl4-3" edge="1">
                    <mxGeometry relative="1" as="geometry">
                        <mxPoint x="600" y="330" as="targetPoint"/>
                    </mxGeometry>
                </mxCell>
                <mxCell id="Nn95fTtBwCOmTKekyxl4-4" value="" style="html=1;dashed=0;whitespace=wrap;fillColor=#2875E2;strokeColor=#ffffff;points=[[0.005,0.63,0],[0.1,0.2,0],[0.9,0.2,0],[0.5,0,0],[0.995,0.63,0],[0.72,0.99,0],[0.5,1,0],[0.28,0.99,0]];shape=mxgraph.kubernetes.icon;prIcon=api" parent="1" vertex="1">
                    <mxGeometry x="680" y="410" width="140" height="128" as="geometry"/>
                </mxCell>
                <mxCell id="Nn95fTtBwCOmTKekyxl4-9" value="End User" style="text;html=1;strokeColor=none;fillColor=none;align=center;verticalAlign=middle;whiteSpace=wrap;rounded=0;fontSize=13;fontStyle=1" parent="1" vertex="1">
                    <mxGeometry x="132.2" y="260" width="40" height="20" as="geometry"/>
                </mxCell>
                <mxCell id="Nn95fTtBwCOmTKekyxl4-10" value="Accesses the To-Do App" style="text;html=1;strokeColor=none;fillColor=none;align=center;verticalAlign=middle;whiteSpace=wrap;rounded=0;fontSize=14;" parent="1" vertex="1">
                    <mxGeometry x="320" y="330" width="150" height="20" as="geometry"/>
                </mxCell>
                <mxCell id="Nn95fTtBwCOmTKekyxl4-11" value="User edits and manages To-do App&lt;br&gt;&lt;ul&gt;&lt;li&gt;List of tasks&lt;/li&gt;&lt;li&gt;Task status&lt;/li&gt;&lt;li&gt;Completed tasks&lt;/li&gt;&lt;/ul&gt;" style="text;html=1;strokeColor=none;fillColor=none;align=center;verticalAlign=middle;whiteSpace=wrap;rounded=0;fontSize=14;" parent="1" vertex="1">
                    <mxGeometry x="220" y="630" width="160" height="20" as="geometry"/>
                </mxCell>
                <mxCell id="Nn95fTtBwCOmTKekyxl4-12" value="Trello API" style="text;html=1;strokeColor=none;fillColor=none;align=center;verticalAlign=middle;whiteSpace=wrap;rounded=0;fontSize=15;" parent="1" vertex="1">
                    <mxGeometry x="710" y="538" width="80" height="20" as="geometry"/>
                </mxCell>
                <mxCell id="Nn95fTtBwCOmTKekyxl4-13" value="GET&lt;br&gt;POST&lt;br&gt;PUT&lt;br&gt;DELETE" style="text;html=1;align=center;verticalAlign=middle;whiteSpace=wrap;rounded=0;fontSize=15;labelBorderColor=#0066CC;labelBackgroundColor=#333333;spacingTop=4;strokeWidth=3;" parent="1" vertex="1">
                    <mxGeometry x="530" y="460" width="70" height="30" as="geometry"/>
                </mxCell>
            </root>
        </mxGraphModel>
    </diagram>
</mxfile>